<mxfile host="Electron" modified="2023-06-11T21:36:53.922Z" agent="Mozilla/5.0 (X11; Linux x86_64) AppleWebKit/537.36 (KHTML, like Gecko) draw.io/21.2.8 Chrome/112.0.5615.165 Electron/24.2.0 Safari/537.36" etag="nA7Q8M_iuqVAnMtXWW2X" version="21.2.8" type="device">
  <diagram name="Page-1" id="6VeqHCRG_LP4c3aZ6bMG">
    <mxGraphModel dx="2074" dy="1347" grid="1" gridSize="10" guides="1" tooltips="1" connect="1" arrows="1" fold="1" page="1" pageScale="1" pageWidth="850" pageHeight="1100" math="0" shadow="0">
      <root>
        <mxCell id="0" />
        <mxCell id="1" parent="0" />
        <mxCell id="0gCSqFgOIgDz56ahkiKq-1" value="" style="shape=image;verticalLabelPosition=bottom;labelBackgroundColor=default;verticalAlign=top;aspect=fixed;imageAspect=0;image=file:///home/xteca/Insync/ax2ct%40outlook.com/Google%20Drive/Workshop/PPC2023/Presentation/images/00_FIG_2.png;" vertex="1" parent="1">
          <mxGeometry x="350" y="120" width="963" height="704" as="geometry" />
        </mxCell>
        <mxCell id="0gCSqFgOIgDz56ahkiKq-3" value="" style="verticalLabelPosition=bottom;verticalAlign=top;html=1;shape=mxgraph.basic.orthogonal_triangle;flipV=1;flipH=1;strokeColor=none;fillColor=#999999;fillStyle=hatch;" vertex="1" parent="1">
          <mxGeometry x="665" y="145" width="610" height="410" as="geometry" />
        </mxCell>
        <mxCell id="0gCSqFgOIgDz56ahkiKq-4" value="Galactic" style="text;html=1;strokeColor=none;fillColor=none;align=center;verticalAlign=middle;whiteSpace=wrap;rounded=0;fontFamily=IBM Plex Sans;fontSize=28;fontStyle=1;rotation=33;fontColor=#808080;" vertex="1" parent="1">
          <mxGeometry x="1000" y="320" width="60" height="30" as="geometry" />
        </mxCell>
      </root>
    </mxGraphModel>
  </diagram>
</mxfile>
